<?xml version="1.0" encoding="UTF-8" standalone="no"?>
<!-- Created with Inkscape (http://www.inkscape.org/) -->

<svg
   xmlns:dc="http://purl.org/dc/elements/1.1/"
   xmlns:cc="http://creativecommons.org/ns#"
   xmlns:rdf="http://www.w3.org/1999/02/22-rdf-syntax-ns#"
   xmlns:svg="http://www.w3.org/2000/svg"
   xmlns="http://www.w3.org/2000/svg"
   xmlns:xlink="http://www.w3.org/1999/xlink"
   xmlns:sodipodi="http://sodipodi.sourceforge.net/DTD/sodipodi-0.dtd"
   xmlns:inkscape="http://www.inkscape.org/namespaces/inkscape"
   width="1941"
   height="220"
   viewBox="0 0 513.55625 58.208335"
   version="1.1"
   id="svg5350"
   inkscape:version="0.92.3 (2405546, 2018-03-11)"
   sodipodi:docname="headbg2.svg"
   inkscape:export-filename="\\wsl$\Debian\var\lib\mediawiki\skins\Cali\resources\img\headbg2.png"
   inkscape:export-xdpi="96"
   inkscape:export-ydpi="96">
  <defs
     id="defs5344">
    <linearGradient
       id="linearGradient6041"
       inkscape:collect="always">
      <stop
         id="stop6037"
         offset="0"
         style="stop-color:#bfbfbf;stop-opacity:1" />
      <stop
         id="stop6039"
         offset="1"
         style="stop-color:#bfbfbf;stop-opacity:0" />
    </linearGradient>
    <linearGradient
       inkscape:collect="always"
       id="linearGradient5901">
      <stop
         style="stop-color:#d2d2d2;stop-opacity:1"
         offset="0"
         id="stop5897" />
      <stop
         style="stop-color:#d2d2d2;stop-opacity:0"
         offset="1"
         id="stop5899" />
    </linearGradient>
    <linearGradient
       inkscape:collect="always"
       xlink:href="#linearGradient5901"
       id="linearGradient5903"
       x1="259.3562"
       y1="238.41367"
       x2="259.3562"
       y2="295.11011"
       gradientUnits="userSpaceOnUse" />
    <linearGradient
       inkscape:collect="always"
       xlink:href="#linearGradient6041"
       id="linearGradient5935"
       x1="258.02231"
       y1="248.6898"
       x2="258.02231"
       y2="304.63028"
       gradientUnits="userSpaceOnUse"
       gradientTransform="matrix(3.7795275,0,0,3.7795275,0,-902.51958)" />
    <linearGradient
       inkscape:collect="always"
       xlink:href="#linearGradient6041"
       id="linearGradient5943"
       x1="250.43452"
       y1="290.31519"
       x2="250.43452"
       y2="244.20209"
       gradientUnits="userSpaceOnUse"
       gradientTransform="matrix(3.7795275,0,0,3.7795275,0,-902.51966)" />
  </defs>
  <sodipodi:namedview
     id="base"
     pagecolor="#ffffff"
     bordercolor="#666666"
     borderopacity="1.0"
     inkscape:pageopacity="0.0"
     inkscape:pageshadow="2"
     inkscape:zoom="9.92"
     inkscape:cx="1910.236"
     inkscape:cy="70.554591"
     inkscape:document-units="px"
     inkscape:current-layer="layer1"
     showgrid="false"
     inkscape:pagecheckerboard="false"
     units="px"
     inkscape:window-width="1368"
     inkscape:window-height="859"
     inkscape:window-x="-8"
     inkscape:window-y="-8"
     inkscape:window-maximized="1" />
  <metadata
     id="metadata5347">
    <rdf:RDF>
      <cc:Work
         rdf:about="">
        <dc:format>image/svg+xml</dc:format>
        <dc:type
           rdf:resource="http://purl.org/dc/dcmitype/StillImage" />
        <dc:title></dc:title>
      </cc:Work>
    </rdf:RDF>
  </metadata>
  <g
     inkscape:label="Layer 1"
     inkscape:groupmode="layer"
     id="layer1"
     transform="translate(0,-238.79165)">
    <rect
       style="opacity:1;fill:url(#linearGradient5903);fill-opacity:1;stroke:none;stroke-width:0.12906095;stroke-miterlimit:4;stroke-dasharray:none;stroke-opacity:1"
       id="rect5895"
       width="513.42719"
       height="58.079273"
       x="0.064530462"
       y="238.85619" />
    <path
       id="path5919"
       transform="matrix(0.26458334,0,0,0.26458334,0,238.79165)"
       style="opacity:1;fill:url(#linearGradient5943);fill-opacity:1;stroke:none;stroke-width:0.49999997;stroke-miterlimit:4;stroke-dasharray:none;stroke-opacity:1"
       d="m 1775.2891,69.039062 c -5.9371,7.97e-4 -11.8658,0.199251 -17.7207,1.292969 -6.511,1.071421 -12.9694,2.432107 -19.1856,4.699219 -7.0111,2.440441 -13.9425,5.113789 -20.668,8.267578 -7.1911,3.367332 -14.3003,6.901088 -21.3652,10.525391 -17.0798,9.232851 -33.8259,19.075791 -50.5215,28.986331 -2.81,1.46887 -5.6393,2.90059 -8.5019,4.26367 -6.6395,3.02551 -13.3916,5.83531 -20.4004,7.89844 -6.5072,1.86338 -13.0928,3.45118 -19.7988,4.42187 -6.334,0.80398 -12.6903,1.45227 -19.0879,1.25195 -6.0595,-0.10423 -12.1257,-0.38652 -18.127,-1.2871 -6.2151,-0.88828 -12.4183,-1.87193 -18.5644,-3.16211 -6.5105,-1.38668 -12.9921,-2.91879 -19.3653,-4.85157 -6.9451,-2.12466 -13.8258,-4.45171 -20.582,-7.12304 -7.4004,-2.89263 -14.8075,-5.77138 -22.0469,-9.05469 -7.3445,-3.1609 -14.6057,-6.51414 -21.9922,-9.57813 -6.5976,-2.82047 -13.2598,-5.50914 -20.1445,-7.55859 -6.6729,-2.063924 -13.4644,-3.725118 -20.3809,-4.748047 -7.3565,-0.998702 -14.7439,-1.783339 -22.1777,-1.833984 -8.1336,0.02827 -16.2627,0.373972 -24.3242,1.535156 -8.9273,1.309531 -17.8439,2.772441 -26.6035,4.966797 -9.6926,2.393688 -19.3465,4.964298 -28.8125,8.154298 -9.9469,3.33324 -19.8133,6.90996 -29.5762,10.75 -10.2422,3.98555 -20.5323,7.84917 -30.9102,11.46875 -10.9556,3.81422 -21.9464,7.53055 -33.0722,10.82422 -11.2341,3.25863 -22.5351,6.32762 -34.041,8.48437 -10.7519,2.03581 -21.5398,3.94697 -32.4571,4.85742 -9.6144,0.77715 -19.2559,1.33554 -28.9023,0.76563 -8.6052,-0.57483 -17.174,-1.54881 -25.5723,-3.5918 -9.1834,-2.10463 -18.3178,-4.45074 -27.1621,-7.73633 -9.3932,-3.41854 -18.6567,-7.16227 -27.7207,-11.38476 -9.1802,-4.22623 -18.3149,-8.54844 -27.375,-13.02735 -8.9789,-4.38621 -17.8137,-9.07516 -26.95117,-13.13085 -8.06003,-3.38794 -16.22567,-6.582817 -24.72265,-8.714848 -7.11538,-1.744063 -14.33701,-2.990514 -21.60156,-3.935547 -6.80863,-0.736743 -13.6444,-1.279446 -20.49414,-1.400391 -6.71295,-0.07688 -13.42,0.239457 -20.09376,0.992188 -6.91449,0.793587 -13.77881,1.968533 -20.61132,3.289062 -7.17419,1.447484 -14.31965,3.044297 -21.33789,5.136719 -7.52213,2.232267 -14.99032,4.653217 -22.27539,7.580077 -8.02776,3.15345 -16.06004,6.29986 -23.875,9.96094 -8.41497,3.85765 -16.80608,7.76895 -25.20899,11.65234 -8.85649,4.05154 -17.76997,8.00381 -26.96484,11.23633 -8.75248,2.95518 -17.56766,5.83547 -26.73438,7.21484 -8.57083,1.24234 -17.23182,1.74437 -25.88086,1.00782 -8.89383,-0.82088 -17.76957,-1.98919 -26.37695,-4.46875 -9.12389,-2.52832 -18.08422,-5.55621 -26.98438,-8.78321 -9.51371,-3.45516 -18.99775,-6.99183 -28.38281,-10.78515 -9.12181,-3.78119 -18.13415,-7.81041 -27.09375,-11.96094 -8.21771,-3.76532 -16.3997,-7.62922 -24.89844,-10.73633 -8.68678,-3.381478 -17.42634,-6.646786 -26.31835,-9.453123 -8.43693,-2.506999 -16.98022,-4.833651 -25.76172,-5.738281 -7.06625,-0.614438 -14.17145,-0.664622 -21.17578,0.644531 -6.56467,1.304844 -13.0393,2.9695 -19.33399,5.269531 -6.85527,2.439005 -13.62582,5.108322 -20.24219,8.142582 -7.34687,3.24412 -14.55725,6.77141 -21.64257,10.55468 -18.7409,10.10469 -37.12975,20.89377 -55.26368,32.05469 -3.16474,1.65057 -6.3552,3.25412 -9.59961,4.75 -6.89595,3.16006 -13.86732,6.24192 -21.24023,8.12695 -6.99991,1.77408 -14.06657,3.39179 -21.32617,3.53125 -7.16353,0.0601 -14.3284,-0.54657 -21.34766,-2.02539 -7.41655,-1.62036 -14.6628,-3.85512 -21.70898,-6.69336 -7.7887,-3.10835 -15.46074,-6.50525 -22.83789,-10.50781 -7.96137,-4.26716 -15.8445,-8.67428 -23.58399,-13.33398 -7.63149,-4.45932 -15.23459,-8.97169 -23.16015,-12.90039 -7.97545,-4.02758 -16.03563,-7.8971 -24.22657,-11.46875 -8.46645,-3.650574 -16.96585,-7.226523 -25.51953,-10.667972 -7.83183,-3.053102 -15.72276,-5.960159 -23.75781,-8.439453 -6.86289,-2.090683 -13.77683,-4.005203 -20.74609,-5.710937 -6.4811,-1.512576 -13.00908,-2.790567 -19.53711,-4.082032 C 103.02111,72.489472 96.701115,71.337772 90.335938,70.578125 84.707044,70.144651 79.059949,70.06677 73.427734,70.533203 68.509901,71.143332 63.644601,72.144675 58.908203,73.617188 41.881508,79.778152 26.857329,90.11896 11.384766,99.498047 8.7244398,101.05105 6.1996478,102.78621 3.6679688,104.53711 L 41.150391,89.773438 c -6.25526,3.599264 -13.691259,7.886238 -22.939453,13.248042 -0.635638,0.36851 1.288531,-0.70778 1.941406,-1.04492 2.057926,-1.06231 4.167531,-1.981417 6.300781,-2.878904 4.524426,-1.86119 9.303466,-2.965332 14.09375,-3.882812 5.480375,-0.936681 11.050837,-0.946551 16.589844,-0.785156 6.342659,0.316644 12.617157,1.426553 18.855469,2.5625 6.5199,1.219649 13.018098,2.541834 19.501953,3.939452 7.008809,1.51797 13.926489,3.41685 20.832029,5.3418 8.11349,2.25656 16.07606,4.99711 23.97266,7.91211 8.60815,3.20749 17.03861,6.85762 25.47461,10.48633 8.12256,3.49027 16.07136,7.3637 23.95898,11.35156 7.86649,3.91948 15.5272,8.22397 23.1211,12.64258 7.80653,4.60505 15.68819,9.07469 23.62695,13.44726 7.37933,4.15125 15.05527,7.71813 22.8457,11.01758 7.08976,3.03247 14.40377,5.43973 21.86719,7.35156 7.14781,1.73258 14.46105,2.52532 21.79687,2.79102 7.43999,0.17178 14.76228,-1.12773 21.98438,-2.76563 7.57337,-1.66734 14.7591,-4.57635 21.8457,-7.65625 7.31326,-3.22265 14.38009,-6.94935 21.39453,-10.76758 17.06868,-9.61185 34.11049,-19.27499 50.77344,-29.57031 4.70179,-2.42009 9.45404,-4.74066 14.26172,-6.94531 6.52331,-2.99407 13.15727,-5.72571 19.88086,-8.23438 6.15602,-2.31911 12.46966,-4.13781 18.87305,-5.62109 6.85224,-1.59568 13.86153,-1.95466 20.86718,-1.76758 8.74137,0.38253 17.26896,2.40404 25.66797,4.72071 8.85865,2.5491 17.48305,5.83022 26.0625,9.18164 8.40919,3.18648 16.62504,6.82444 24.81641,10.52539 9.10719,4.08465 18.26951,8.0388 27.49023,11.85937 9.38877,3.81166 18.83752,7.4705 28.33203,11.00977 8.91466,3.28626 17.86616,6.46532 26.98438,9.14062 8.69771,2.63838 17.65774,4.12035 26.67187,5.1211 8.79205,1.00282 17.62315,0.69911 26.39649,-0.26172 9.38589,-1.15234 18.44902,-3.86623 27.41406,-6.76758 9.29291,-3.081 18.28996,-6.9539 27.23047,-10.92188 8.37751,-3.78376 16.71087,-7.66577 25.06445,-11.50195 7.71251,-3.61236 15.58496,-6.8542 23.51172,-9.96094 7.19067,-2.88778 14.5124,-5.41174 21.91211,-7.70312 6.91317,-2.12187 13.9419,-3.82389 21.00977,-5.33789 6.72192,-1.39986 13.49732,-2.5265 20.29883,-3.45899 6.55868,-0.8547 13.15767,-1.26835 19.76757,-1.37304 6.79401,-0.0613 13.57403,0.40096 20.33594,1.00976 7.24278,0.69687 14.41324,1.94411 21.54102,3.38086 8.51901,1.77256 16.73111,4.675 24.8125,7.84961 9.22824,3.76517 18.09102,8.34288 27.02148,12.75 9.09309,4.46234 18.20881,8.87973 27.40621,13.12305 9.1183,4.27729 18.431,8.1126 27.8536,11.66211 8.8529,3.41665 17.9774,5.99907 27.1718,8.30273 8.4838,2.21084 17.1434,3.49165 25.8711,4.17578 9.9196,0.68629 19.8443,0.12485 29.7383,-0.63476 11.0612,-0.88551 22.0208,-2.64283 32.9199,-4.67969 11.6183,-2.11472 23.0347,-5.13941 34.4004,-8.31055 11.1146,-3.18939 22.0985,-6.80829 33.043,-10.5332 10.3745,-3.53752 20.6477,-7.36014 30.8867,-11.26953 9.6999,-3.79737 19.4841,-7.36782 29.332,-10.76172 9.3405,-3.21626 18.859,-5.86366 28.4336,-8.27734 8.591,-2.19716 17.3306,-3.717 26.0899,-5.05469 7.8636,-1.21062 15.801,-1.69436 23.748,-1.8086 7.2615,-0.0812 14.4933,0.57731 21.6875,1.49415 6.7554,0.88206 13.398,2.40776 19.9434,4.27148 6.8364,1.9536 13.5042,4.43215 20.0957,7.08398 7.4545,2.97079 14.8019,6.19397 22.1601,9.39258 7.2587,3.2394 14.5861,6.31282 21.9668,9.26172 6.7556,2.75195 13.6182,5.22171 20.5508,7.48633 6.3852,2.07156 12.89,3.73389 19.4278,5.24219 6.1656,1.40315 12.3968,2.48098 18.6425,3.45507 6.1027,1.00537 12.2662,1.50224 18.4434,1.68555 6.521,0.21498 13.0305,-0.13208 19.5098,-0.84765 6.8693,-0.79748 13.6281,-2.28586 20.3086,-4.04493 7.1387,-1.90057 14.0163,-4.60075 20.8105,-7.4707 6.7778,-2.93832 13.2769,-6.45946 19.7539,-9.99805 14.4869,-7.81352 28.5869,-16.29205 42.7109,-24.72851 5.9767,-3.15617 12.041,-6.1462 18.1348,-9.06836 6.5863,-3.17533 13.3623,-5.91668 20.2246,-8.429689 6.0145,-2.260686 12.2302,-3.847934 18.5313,-5.052734 5.6727,-1.119383 11.4188,-1.593523 17.1894,-1.726563 5.6995,-0.08988 11.379,0.418827 17.0391,1.023438 5.8839,0.628044 11.6856,1.759231 17.4512,3.064453 5.9424,1.465474 11.7544,3.401955 17.5,5.498045 6.5205,2.39214 12.8729,5.19428 19.1289,8.20313 7.6724,3.79143 15.1607,7.93017 22.625,12.11133 9.0197,5.02238 17.7509,10.53003 26.3418,16.24804 9.185,6.15595 18.3253,12.37996 27.5449,18.48438 0.1958,0.0574 0.3933,0.11512 0.5898,0.16992 0.2049,0.0559 0.4101,0.11046 0.6153,0.16601 0.2226,0.059 0.4452,0.11682 0.6679,0.17579 0.2325,0.0612 0.4662,0.12192 0.6992,0.18164 0.2416,0.0605 0.4826,0.12035 0.7247,0.17968 0.2562,0.0627 0.5131,0.12672 0.7695,0.18946 0.2657,0.0654 0.5308,0.13068 0.7969,0.19531 0.2747,0.0669 0.55,0.13591 0.8242,0.20508 0.2657,0.0688 0.5302,0.13459 0.7969,0.19922 0.2717,0.065 0.5436,0.13433 0.8144,0.20312 0.2907,0.0748 0.5802,0.15349 0.8691,0.23438 0.2884,0.082 0.5754,0.16647 0.8633,0.25 0.2861,0.0824 0.5707,0.16798 0.8575,0.25 0.2864,0.0835 0.5758,0.16206 0.8632,0.24218 0.2809,0.0779 0.5617,0.15324 0.8438,0.22657 0.2974,0.0782 0.5947,0.1545 0.8926,0.23046 0.2951,0.0756 0.591,0.14934 0.8867,0.22266 0.2914,0.0707 0.5829,0.14095 0.875,0.20899 0.2929,0.068 0.5872,0.13106 0.8808,0.19531 0.2892,0.0608 0.5793,0.11833 0.8692,0.17578 0.2933,0.0574 0.5866,0.11115 0.8808,0.16406 0.2903,0.0522 0.5818,0.0992 0.8731,0.14649 0.285,0.0472 0.5711,0.0888 0.8574,0.12695 0.2827,0.0389 0.5675,0.0665 0.8516,0.0937 0.2891,0.0265 0.5792,0.0507 0.8691,0.0703 0.2823,0.0189 0.5648,0.034 0.8477,0.0449 0.2921,0.0113 0.5828,0.0178 0.875,0.0254 0.2902,0.008 0.581,0.016 0.8711,0.0274 0.2823,0.008 0.5634,0.0159 0.8457,0.0234 0.2827,0.008 0.5652,0.0139 0.8476,0.0215 0.2759,0.008 0.5523,0.0199 0.8281,0.0312 0.285,0.0113 0.5709,0.0267 0.8555,0.043 0.288,0.0151 0.5756,0.0328 0.8633,0.0547 0.288,0.0189 0.5753,0.0433 0.8633,0.0645 0.2838,0.0227 0.5678,0.0394 0.8515,0.0605 0.282,0.0227 0.5638,0.0437 0.8457,0.0664 0.2918,0.0227 0.582,0.0541 0.8731,0.084 0.2793,0.0264 0.5593,0.0601 0.8379,0.0937 0.2642,0.0302 0.5272,0.0644 0.791,0.0976 0.254,0.034 0.5076,0.0699 0.7617,0.10352 0.2381,0.0302 0.4765,0.0592 0.7149,0.0879 0.2369,0.0265 0.4738,0.0559 0.7109,0.082 0.223,0.0265 0.4462,0.0448 0.6699,0.0645 0.2287,0.0189 0.4586,0.0389 0.6875,0.0566 0.237,0.0189 0.4742,0.037 0.711,0.0566 0.012,0.001 0.023,7.4e-4 0.035,0.002 1.4846,-0.13808 2.9699,-0.26789 4.4531,-0.41992 2.1528,-0.21738 4.2993,-0.48464 6.4434,-0.77344 0.1867,-0.0487 0.3725,-0.10001 0.5586,-0.15039 0.189,-0.051 0.3801,-0.10063 0.5683,-0.1543 0.1943,-0.054 0.3866,-0.11285 0.5801,-0.16992 0.189,-0.0567 0.3781,-0.11607 0.5664,-0.17578 0.082,-0.0265 0.1641,-0.0534 0.2461,-0.0801 -0.1503,-0.13667 -0.3007,-0.27352 -0.4492,-0.41211 -0.1848,-0.17121 -0.3646,-0.34775 -0.543,-0.52539 -0.1829,-0.17991 -0.3657,-0.35926 -0.5468,-0.54102 -0.1909,-0.18935 -0.3793,-0.38117 -0.5684,-0.57226 -0.1962,-0.20183 -0.3951,-0.40033 -0.5957,-0.59766 -0.2064,-0.19918 -0.4159,-0.39404 -0.627,-0.58789 -0.2241,-0.20447 -0.4494,-0.40724 -0.6757,-0.60937 -0.2283,-0.20183 -0.4567,-0.40436 -0.6856,-0.60547 -0.2283,-0.19994 -0.4582,-0.39882 -0.6875,-0.59766 -0.2298,-0.19956 -0.4617,-0.39623 -0.6933,-0.59375 -0.2317,-0.19653 -0.4639,-0.39163 -0.6973,-0.58594 -0.2411,-0.20031 -0.4825,-0.40218 -0.7227,-0.60351 -0.2313,-0.19351 -0.4629,-0.38594 -0.6953,-0.57813 -0.2328,-0.19275 -0.4629,-0.38629 -0.6933,-0.58203 -0.2253,-0.19313 -0.4504,-0.38881 -0.6739,-0.58398 -0.2237,-0.19503 -0.4439,-0.39284 -0.664,-0.5918 -0.2045,-0.18557 -0.4107,-0.36969 -0.6172,-0.55273 -0.2109,-0.18747 -0.4215,-0.37503 -0.6309,-0.56446 -0.2044,-0.18557 -0.4066,-0.37331 -0.6093,-0.56054 -0.1898,-0.17424 -0.3807,-0.34894 -0.5704,-0.52344 -0.1852,-0.16857 -0.3696,-0.33894 -0.5546,-0.50781 -0.1864,-0.1697 -0.3717,-0.33871 -0.5567,-0.50977 -0.2018,-0.18482 -0.3979,-0.37531 -0.5937,-0.5664 -0.2075,-0.20414 -0.4115,-0.4113 -0.6133,-0.6211 -0.1981,-0.20674 -0.397,-0.41494 -0.5938,-0.62305 -0.2052,-0.21732 -0.4092,-0.43565 -0.6132,-0.65429 -0.2057,-0.21997 -0.4139,-0.43616 -0.6231,-0.65235 -0.2181,-0.22563 -0.4397,-0.44831 -0.6602,-0.67187 -0.2282,-0.23282 -0.4592,-0.4644 -0.6914,-0.69336 -0.2456,-0.24227 -0.4917,-0.48315 -0.7402,-0.72266 -0.2593,-0.25058 -0.5185,-0.50089 -0.7793,-0.75 -0.2634,-0.25096 -0.5276,-0.50298 -0.791,-0.7539 -0.2566,-0.24454 -0.5129,-0.48798 -0.7715,-0.73047 -0.2562,-0.24 -0.5141,-0.47812 -0.7715,-0.7168 -0.2453,-0.22866 -0.4916,-0.45477 -0.7402,-0.67969 -0.2423,-0.21959 -0.4876,-0.43754 -0.7324,-0.65429 -0.2412,-0.21392 -0.4833,-0.42687 -0.7266,-0.63867 -0.2377,-0.20867 -0.4779,-0.41548 -0.7168,-0.62305 -0.2328,-0.20258 -0.4659,-0.40342 -0.6992,-0.60547 -0.2325,-0.20069 -0.4647,-0.40281 -0.6953,-0.60547 -0.2287,-0.20069 -0.4562,-0.40169 -0.6836,-0.60351 -0.2366,-0.20792 -0.4707,-0.42007 -0.7031,-0.63282 -0.2261,-0.20825 -0.4497,-0.41654 -0.6739,-0.62695 -0.2199,-0.20863 -0.4404,-0.41782 -0.6582,-0.62891 -0.2173,-0.21052 -0.4313,-0.42441 -0.6445,-0.63867 -0.2083,-0.20976 -0.415,-0.41902 -0.6211,-0.63086 -0.2094,-0.21505 -0.4157,-0.43575 -0.6191,-0.65625 -0.1954,-0.21316 -0.3884,-0.42591 -0.5821,-0.64062 -0.1969,-0.2177 -0.3935,-0.43809 -0.5879,-0.65821 -0.1874,-0.21089 -0.3752,-0.42136 -0.5644,-0.63086 -0.1984,-0.21959 -0.3949,-0.43947 -0.5918,-0.66015 -0.1999,-0.22564 -0.3977,-0.45228 -0.5957,-0.67969 -0.1882,-0.21732 -0.3798,-0.43453 -0.5742,-0.64648 -0.2053,-0.22337 -0.4118,-0.44488 -0.6192,-0.66602 -0.2139,-0.22866 -0.4292,-0.4543 -0.6445,-0.68164 -0.2086,-0.22035 -0.4193,-0.4405 -0.6309,-0.6582 -0.2169,-0.22073 -0.432,-0.4427 -0.6484,-0.66407 -0.2207,-0.22563 -0.4396,-0.45219 -0.6582,-0.67968 -0.2071,-0.21657 -0.4179,-0.43162 -0.627,-0.64649 -0.2044,-0.20825 -0.4061,-0.41735 -0.6113,-0.625 -0.2079,-0.21127 -0.4151,-0.42355 -0.6211,-0.63672 -0.1973,-0.20333 -0.3944,-0.40835 -0.5898,-0.61328 -0.1826,-0.19238 -0.3666,-0.38151 -0.5508,-0.57226 -0.1807,-0.18558 -0.3604,-0.37118 -0.541,-0.55664 -0.1773,-0.18104 -0.3547,-0.36302 -0.5313,-0.54493 -0.17,-0.17385 -0.3412,-0.3462 -0.5117,-0.51953 -0.1746,-0.17763 -0.3465,-0.35976 -0.5195,-0.53906 -0.1761,-0.18255 -0.3484,-0.36726 -0.5196,-0.55469 -0.1689,-0.18557 -0.3323,-0.37838 -0.4941,-0.57031 -0.1587,-0.18784 -0.3103,-0.37965 -0.4609,-0.57422 -0.1376,-0.18217 -0.2734,-0.36679 -0.4082,-0.55078 -0.034,-0.0477 -0.067,-0.0966 -0.1016,-0.14453 -8.4785,-5.74607 -16.9795,-11.46985 -25.7988,-16.68555 -7.3747,-4.324125 -14.7899,-8.58641 -22.3574,-12.566404 -6.1876,-3.19113 -12.3991,-6.38344 -18.9258,-8.835937 -5.8255,-2.261367 -11.7489,-4.264652 -17.7774,-5.917969 -5.8161,-1.488529 -11.6766,-2.812916 -17.6425,-3.548828 -5.7387,-0.687221 -11.4828,-1.34547 -17.2676,-1.47461 z M 54.634766,82.021484 c -0.304712,0.178872 -3.881424,2.231281 -8.69336,4.996094 1.392209,-0.849633 2.836115,-1.621465 4.230469,-2.466797 3.329774,-1.890557 4.702579,-2.669998 4.462891,-2.529297 z M 438.79297,120.61328 c -2.24081,1.29732 -3.54775,2.04485 -5.56641,3.21094 0.605,-0.34988 1.20677,-0.70617 1.8125,-1.05469 1.25072,-0.71962 5.0027,-2.87923 3.75391,-2.15625 z m 1470.83793,7.35547 c 0.1346,0.1499 0.2693,0.2998 0.4043,0.44922 0.1076,0.11908 0.2134,0.23968 0.3203,0.35937 -0.011,-0.11497 -0.025,-0.23484 -0.045,-0.36132 -0.2243,-0.15051 -0.4515,-0.29665 -0.6757,-0.44727 z m 31.498,29.59961 c -0.01,0.004 -0.021,0.008 -0.031,0.0117 0.01,0.0103 0.021,0.0209 0.031,0.0312 -3e-4,-0.0139 0,-0.0285 0,-0.043 z m -40.3926,7.1543 c 0.1793,0.10859 0.3573,0.21929 0.5352,0.33007 -0.01,-0.0682 -0.013,-0.1284 -0.025,-0.19921 -0.1698,-0.0434 -0.3398,-0.0871 -0.5098,-0.13086 z" />
    <path
       id="path5927"
       transform="matrix(0.26458334,0,0,0.26458334,0,238.79165)"
       style="opacity:1;fill:url(#linearGradient5935);fill-opacity:1;stroke:none;stroke-width:0.49999997;stroke-miterlimit:4;stroke-dasharray:none;stroke-opacity:1"
       d="m 1692.6406,21.080078 c -7.1241,-0.03821 -14.2478,0.3872 -21.3125,1.330078 -6.9228,0.953386 -13.7955,2.201503 -20.5332,4.085938 -6.8504,1.891842 -13.6526,3.966301 -20.3047,6.478515 -7.1173,2.699528 -14.1715,5.572724 -21.0703,8.794922 -6.9045,3.365254 -13.6924,6.95919 -20.5019,10.511719 -7.0032,3.698494 -13.985,7.436492 -20.8594,11.371094 -7.1275,4.032 -14.2366,8.095924 -21.3223,12.201172 -7.3673,4.228611 -14.7597,8.411745 -22.1777,12.550781 -7.8701,4.420686 -15.7076,8.902631 -23.6348,13.220703 -8.3999,4.59938 -16.864,9.08477 -25.4004,13.42578 -8.555,4.32068 -17.1295,8.59997 -25.8242,12.63477 -7.9739,3.7802 -15.98,7.49713 -24.1172,10.91601 -7.1889,3.0169 -14.4338,5.89849 -21.6914,8.7461 -6.5497,2.52332 -13.0923,5.08939 -19.7968,7.17773 -6.3504,1.93795 -12.7155,3.83765 -19.1622,5.43359 -6.7263,1.55785 -13.5018,2.9683 -20.3691,3.74219 -7.1922,0.68625 -14.4212,0.88476 -21.6406,0.51172 -7.6596,-0.42947 -15.3048,-1.13633 -22.8457,-2.59961 -7.8194,-1.60959 -15.5063,-3.76603 -23.0235,-6.46484 -7.7048,-2.85472 -15.2907,-6.00999 -22.8066,-9.33008 -7.8473,-3.44149 -15.6607,-6.95572 -23.3418,-10.75781 -8.1032,-3.92277 -16.2074,-7.84262 -24.25,-11.88867 -7.4101,-3.69575 -14.774,-7.48582 -22.2188,-11.11133 -6.078,-2.87048 -12.2548,-5.51668 -18.3808,-8.28125 -5.6401,-2.46932 -11.2394,-5.029228 -16.8692,-7.521488 -5.9292,-2.747523 -11.8466,-5.512401 -17.6484,-8.523437 -5.8739,-3.057335 -11.7794,-6.06066 -17.541,-9.326172 -5.8956,-3.360794 -11.8794,-6.56838 -17.8399,-9.8125 -5.9838,-3.082507 -11.9442,-6.216276 -18.08,-8.992187 -6.0202,-2.86337 -12.0914,-5.656528 -18.3907,-7.857422 -6.1677,-2.025903 -12.4353,-3.733375 -18.7968,-5.041016 -6.5272,-1.341052 -13.1049,-2.530717 -19.7559,-3.044922 -6.3233,-0.436308 -12.6543,-0.814341 -18.9961,-0.554687 -6.15798,0.124762 -12.32315,0.243653 -18.46092,0.798828 -6.17926,0.64029 -12.35736,1.302257 -18.5,2.242187 -6.349,0.970281 -12.68516,2.043558 -18.95898,3.427735 -6.67476,1.491175 -13.31674,3.131769 -19.85547,5.146484 -7.06466,2.186192 -14.06733,4.557978 -21.01172,7.101563 -7.59829,2.822702 -15.08675,5.913164 -22.51367,9.160156 -8.67863,3.709871 -17.30456,7.548316 -25.87305,11.505859 -9.25122,4.391925 -18.42438,8.942567 -27.4082,13.863281 -8.93704,4.864558 -17.77323,9.911128 -26.39063,15.326168 -8.27637,5.14235 -16.50218,10.36508 -24.71679,15.60547 -7.96884,5.00217 -15.92721,10.02423 -24.02149,14.82227 -8.0383,4.68302 -16.1879,9.16775 -24.42383,13.49414 -8.29149,4.23685 -16.57475,8.51998 -25.15625,12.14844 -7.80892,3.25262 -15.68828,6.37829 -23.82031,8.74023 -7.35768,2.02511 -14.77283,3.87965 -22.29492,5.19141 -7.08061,1.27045 -14.19351,2.50284 -21.38867,2.8789 -6.38767,0.29439 -12.81048,0.55246 -19.16602,-0.35547 -5.81586,-0.85995 -11.60554,-1.87825 -17.25,-3.5625 -5.46278,-1.55508 -10.86874,-3.30024 -16.09961,-5.52929 -5.36666,-2.21205 -10.74884,-4.39537 -16.02344,-6.82031 -5.46368,-2.5276 -10.88379,-5.13953 -16.26171,-7.84571 -5.4127,-2.69843 -10.8504,-5.34464 -16.28907,-7.99023 -5.68758,-2.79288 -11.35727,-5.61399 -16.96484,-8.56641 -6.05095,-3.10624 -12.15994,-6.10792 -18.08008,-9.46289 -6.13508,-3.36839 -12.1598,-6.93362 -18.33789,-10.22461 -6.23769,-3.443 -12.46451,-6.90369 -18.7168,-10.32031 -6.81335,-3.67601 -13.70351,-7.21058 -20.64257,-10.64258 -6.87406,-3.371219 -13.77397,-6.692698 -20.67969,-9.998046 -6.4989,-3.067426 -13.07532,-5.966776 -19.76758,-8.589843 -6.27436,-2.444448 -12.56194,-4.868027 -19.06836,-6.640625 -6.35359,-1.892863 -12.77387,-3.567256 -19.26367,-4.927735 -6.4818,-1.459275 -12.97227,-2.909891 -19.5332,-3.972656 -6.13786,-0.922167 -12.34697,-1.571712 -18.5625,-1.310547 -5.88364,0.351496 -11.73494,1.069503 -17.44532,2.587891 -5.74462,1.519786 -11.39602,3.386688 -16.87695,5.691406 -5.61124,2.417877 -11.11726,5.075697 -16.35742,8.230469 -5.31722,3.178431 -10.55382,6.487319 -15.52149,10.197265 -4.70653,3.376744 -9.40363,6.768431 -13.98047,10.320311 -4.31177,3.37663 -8.64352,6.72835 -12.8789,10.20117 -4.46508,3.59381 -8.96496,7.14053 -13.47656,10.67578 -4.7279,3.71045 -9.49393,7.3743 -14.34571,10.92188 -4.90163,3.58277 -9.85468,7.09 -14.91601,10.44531 -5.0939,3.41447 -10.22784,6.77046 -15.45117,9.98438 -5.51497,3.31657 -11.12253,6.48393 -16.88086,9.36133 -5.86045,2.88903 -11.76881,5.69025 -17.89649,7.97656 -6.39381,2.37706 -12.85249,4.60163 -19.51562,6.11133 -6.61834,1.46566 -13.28905,2.77511 -20.05078,3.36328 -5.984033,0.41329 -11.973726,0.63361 -17.931645,-0.26758 -5.10282,-0.66663 -10.181837,-1.54483 -15.203125,-2.67578 -4.642129,-1.11938 -9.259127,-2.38575 -13.609375,-4.39453 -0.173499,-0.0809 -0.349518,-0.15636 -0.523437,-0.23633 -1.314899,-1.03376 -2.633319,-2.06787 -3.927735,-3.09961 l -4.939453,-0.98242 c -1.005122,-0.51113 -1.996031,-1.04916 -2.966797,-1.63086 -6.863581,-3.87529 -3.172173,-1.77016 2.697266,1.57617 L 8.2695312,164.92188 c 1.7645298,2.12511 3.9198128,3.77716 5.9999998,5.56835 2.846444,2.49574 5.888949,4.72857 8.898438,7.01954 14.000457,9.73285 28.887027,18.31068 44.322265,25.56835 4.396925,1.72801 8.686215,3.78061 13.197266,5.19336 4.84396,1.42387 9.826059,2.32073 14.796875,3.17188 5.295715,0.94624 10.622325,1.53974 15.992185,1.79297 6.35585,0.22798 12.73681,-0.53613 19.02539,-1.42383 7.02799,-1.1269 13.98374,-2.63605 20.85743,-4.47656 6.95591,-1.9053 13.73108,-4.3654 20.42382,-7.03711 6.35075,-2.56812 12.51102,-5.55835 18.60352,-8.68164 5.91039,-3.10779 11.65313,-6.51048 17.37305,-9.95117 5.35563,-3.34413 10.64719,-6.78984 15.86718,-10.3418 5.2213,-3.31272 10.08314,-7.13206 15.0918,-10.7461 4.91193,-3.69013 9.8315,-7.37092 14.66016,-11.16992 4.61156,-3.44496 9.03285,-7.12804 13.5664,-10.67187 4.25756,-3.39685 8.56635,-6.73155 12.89258,-10.04102 4.45127,-3.51949 9.05735,-6.83273 13.625,-10.19726 4.73359,-3.48299 9.79784,-6.47403 14.9043,-9.36914 4.95777,-2.79867 10.19187,-5.03908 15.50781,-7.05274 5.14945,-1.96259 10.45466,-3.375434 15.85742,-4.416014 5.25184,-1.039597 10.61452,-1.217264 15.94922,-1.021484 5.77243,0.348359 11.4454,1.415008 17.11524,2.482422 6.35247,1.308326 12.67029,2.776276 19.00195,4.179686 6.34171,1.5436 12.54101,3.59723 18.77148,5.52539 6.19423,2.07511 12.24313,4.56919 18.27344,7.07422 6.52641,2.70648 12.84798,5.85647 19.23047,8.87695 6.78943,3.34738 13.63466,6.56861 20.41016,9.94532 6.88293,3.52996 13.64854,7.27031 20.41015,11.02539 6.22186,3.56602 12.50681,7.01628 18.80664,10.4414 6.04033,3.53261 12.18961,6.86147 18.33399,10.20703 6.1268,3.13093 12.2498,6.26509 18.37109,9.40625 5.64873,3.04555 11.45942,5.77639 17.23828,8.5625 5.42925,2.67667 10.8348,5.40349 16.28711,8.03321 5.39641,2.78899 10.97156,5.21578 16.54492,7.625 5.50084,2.18555 10.92492,4.54321 16.48438,6.58008 5.54506,1.97839 11.27165,3.38729 17.0039,4.70117 6.03375,1.32691 12.17696,2.11824 18.34375,2.42969 6.75833,0.0819 13.5151,-0.35794 20.23438,-1.05469 7.3773,-0.98695 14.6881,-2.41419 21.98633,-3.86133 7.74066,-1.63064 15.39743,-3.61906 22.89843,-6.13086 8.27823,-2.81027 16.3189,-6.22954 24.29102,-9.80078 8.5827,-4.0633 17.03293,-8.39438 25.44336,-12.80078 8.40945,-4.37435 16.6448,-9.05238 24.78711,-13.90235 8.12455,-4.9313 16.17336,-9.98312 24.17969,-15.10351 8.11774,-5.32479 16.35539,-10.46032 24.60547,-15.57617 8.43609,-5.3099 17.08806,-10.26507 25.8789,-14.96094 8.8633,-4.82725 17.98739,-9.12877 27.14844,-13.35156 8.56104,-3.78679 17.1777,-7.451878 25.88086,-10.900394 7.39158,-3.117884 14.88562,-5.968428 22.48633,-8.53125 6.85077,-2.455257 13.8064,-4.593312 20.8164,-6.541016 6.41337,-1.7664 12.91832,-3.160168 19.44727,-4.419922 6.16157,-1.171351 12.37112,-2.062538 18.58984,-2.865234 6.01068,-0.705449 12.02378,-1.45746 18.07228,-1.726563 6.0072,-0.223408 12.0187,-0.314781 18.0293,-0.382812 6.0677,0.123968 12.1322,0.568044 18.1562,1.300781 6.3295,0.933392 12.5662,2.367752 18.7754,3.888672 6.0869,1.497827 11.9935,3.527285 17.7676,5.951172 5.9802,2.611049 11.7839,5.587673 17.6836,8.36914 5.9371,2.95544 11.84,5.995198 17.6016,9.281246 5.9778,3.18123 11.7985,6.64561 17.75,9.8711 5.9926,3.00022 11.8822,6.19655 17.9238,9.09961 5.9289,2.9269 11.954,5.6702 18.0293,8.28125 5.5866,2.6784 11.3094,5.05389 16.9414,7.63281 6.082,2.45257 12.015,5.23719 17.8945,8.13477 7.2291,3.70053 14.5436,7.22712 21.8477,10.77734 8.0711,3.98559 16.1746,7.91142 24.2929,11.80078 7.8175,3.79158 15.7927,7.24545 23.7793,10.66211 7.6396,3.37572 15.4529,6.32148 23.42,8.82031 7.913,2.62224 16.036,4.32313 24.2734,5.5 7.9212,1.1585 15.9223,1.61256 23.9199,1.76563 7.6591,0.17325 15.2872,-0.45206 22.8516,-1.60156 7.1684,-1.17775 14.2899,-2.6695 21.3027,-4.56641 6.6128,-1.73666 13.1558,-3.71424 19.6231,-5.92969 6.7415,-2.49664 13.4686,-5.04072 20.1211,-7.76758 7.242,-2.9822 14.4642,-6.00646 21.6191,-9.19336 8.1208,-3.64074 16.1259,-7.52655 24.1035,-11.46875 8.7291,-4.03544 17.2317,-8.52941 25.7949,-12.89843 8.6149,-4.44393 17.2159,-8.91851 25.711,-13.58789 7.9942,-4.27454 15.8578,-8.78254 23.8203,-13.11524 7.511,-4.10827 14.9515,-8.34268 22.3711,-12.61328 7.1235,-3.998098 14.199,-8.079931 21.3476,-12.033203 6.8478,-3.820649 13.7825,-7.492274 20.7539,-11.082031 6.7196,-3.501204 13.4473,-6.98487 20.3399,-10.134766 6.7205,-2.979817 13.5731,-5.627534 20.5176,-8.033203 6.5031,-2.231773 13.1449,-4.013586 19.8242,-5.626953 6.434,-1.634797 13.0271,-2.420627 19.6113,-3.152344 6.7089,-0.623093 13.4126,-0.688677 20.1211,-0.113281 7.0538,0.729184 13.9466,2.476381 20.7598,4.382812 7.3261,1.975824 14.3966,4.793269 21.416,7.648438 4.6733,1.844919 9.1736,4.0577 13.6191,6.382812 6.8057,4.300533 13.5176,8.7445 20.2422,13.169922 6.6788,4.382098 13.3491,8.776568 20.041,13.138672 6.6434,4.399106 13.3883,8.635535 20.2227,12.730465 17.9091,9.92172 35.2383,20.96203 53.4355,30.38477 8.8029,3.46635 8.6845,3.67273 16.125,6.54687 14.3319,1.15943 16.7406,1.51048 34.1817,-1.46289 -9.166,-5.30398 -5.6444,-3.06164 -18.2988,-11.33789 -6.5089,-2.70809 -9.5867,-6.21088 -15.7247,-8.06054 -6.7885,-2.04068 -13.4959,-4.34855 -20.0195,-7.13282 -7.1229,-3.07045 -14.1386,-6.38729 -20.9121,-10.17578 -0.4812,-0.26861 -1.1956,-0.67701 -1.7227,-0.97265 -2.5245,-1.54454 -5.0353,-3.11011 -7.5097,-4.73633 -6.7086,-4.370733 -13.4365,-8.711915 -20.1211,-13.119142 -6.8856,-4.502326 -13.7266,-9.07337 -20.6524,-13.513672 -17.5441,-11.496568 -35.8134,-21.866938 -54.3086,-31.751954 -7.8727,-4.063366 -15.8888,-7.851443 -24.1953,-10.955078 -7.3728,-2.764724 -14.8379,-5.289119 -22.539,-6.988281 -7.3663,-1.625083 -14.8004,-3.045003 -22.3731,-3.140625 z m 91.4414,51.285156 c 0.743,0.404335 1.4875,0.807448 2.2305,1.210938 2.284,1.357727 4.8228,2.837092 7.1445,4.189453 -1.9868,-1.148012 -5.9311,-3.415771 -9.375,-5.400391 z M 60.207031,181.06836 c 7.809698,4.48361 13.457819,7.76655 4.044922,2.58203 -1.377541,-0.81043 -2.721628,-1.6805 -4.044922,-2.58203 z" />
  </g>
</svg>
